<svg xmlns="http://www.w3.org/2000/svg" viewBox="0 0 16 16" enable-background="new 0 0 16 16"><style type="text/css">.icon-canvas-transparent{opacity:0;fill:#F6F6F6;} .icon-servicefabric-orange{fill:#DE5C26;}</style><path class="icon-canvas-transparent" d="M16 16h-16v-16h16v16z" id="canvas"/><path class="icon-servicefabric-orange" d="M13.714 4.571c-.514 0-.983.176-1.365.462l-2.267-1.813c.128-.286.204-.6.204-.934 0-1.263-1.024-2.286-2.286-2.286s-2.286 1.023-2.286 2.286c0 .334.075.648.204.934l-2.267 1.814c-.382-.287-.851-.463-1.365-.463-1.263 0-2.286 1.024-2.286 2.286s1.023 2.286 2.286 2.286l.102-.01.842 2.738c-.57.416-.945 1.084-.945 1.844.001 1.262 1.024 2.285 2.286 2.285.844 0 1.573-.463 1.969-1.143h2.92c.396.68 1.125 1.143 1.969 1.143 1.262 0 2.286-1.023 2.286-2.286 0-.76-.375-1.428-.945-1.843l.843-2.738.102.01c1.262 0 2.285-1.024 2.285-2.286s-1.023-2.286-2.286-2.286zm-2.013 6.885l-.273-.027c-1.262 0-2.286 1.023-2.286 2.286h-2.285c0-1.262-1.023-2.286-2.286-2.286l-.273.028-.817-2.659c.652-.403 1.09-1.118 1.09-1.941 0-.334-.075-.648-.204-.934l2.267-1.814c.383.287.852.462 1.366.462s.983-.176 1.365-.462l2.267 1.814c-.128.286-.204.6-.204.934 0 .823.439 1.538 1.091 1.94l-.818 2.659z" id="iconBg"/></svg>